<?xml version="1.0" standalone="no"?>
<!DOCTYPE svg PUBLIC "-//W3C//DTD SVG 20010904//EN"
 "http://www.w3.org/TR/2001/REC-SVG-20010904/DTD/svg10.dtd">
<svg version="1.0" xmlns="http://www.w3.org/2000/svg"
 width="500.000000pt" height="500.000000pt" viewBox="0 0 500.000000 500.000000"
 preserveAspectRatio="xMidYMid meet">
<metadata>
Created by potrace 1.14, written by Peter Selinger 2001-2017
</metadata>
<g transform="translate(0.000000,500.000000) scale(0.100000,-0.100000)"
fill="#000000" stroke="none">
<path d="M4345 4133 c-45 -7 -183 -48 -245 -73 -208 -83 -469 -252 -715 -464
-116 -99 -363 -352 -491 -501 -271 -318 -425 -535 -576 -810 -95 -173 -183
-405 -214 -560 -2 -11 -6 -31 -9 -44 -19 -99 -25 -290 -12 -391 23 -171 81
-299 193 -426 35 -39 135 -103 205 -129 146 -56 355 -69 522 -33 425 92 853
399 1449 1038 l107 115 1 70 0 69 -41 -39 c-97 -94 -119 -114 -209 -196 -345
-311 -673 -531 -936 -628 -233 -85 -452 -91 -581 -15 -192 112 -259 364 -188
709 15 75 81 251 134 360 72 147 139 264 238 415 424 647 1161 1320 1407 1287
44 -6 53 -12 72 -49 26 -50 19 -137 -19 -244 -41 -113 -176 -330 -316 -509
-91 -117 -279 -315 -298 -315 -22 0 -23 19 -4 62 11 24 22 53 26 66 31 109
-297 -193 -474 -435 -78 -109 -113 -186 -118 -262 -5 -76 11 -110 73 -157 31
-24 47 -29 93 -29 60 0 100 16 191 74 47 30 174 124 190 141 3 3 23 20 45 39
127 107 339 329 460 481 33 41 65 81 72 87 38 41 198 298 254 408 91 180 129
308 133 452 6 200 -65 353 -192 415 -46 22 -158 32 -227 21z"/>
<path d="M1693 4029 c-60 -15 -129 -35 -154 -44 -317 -120 -615 -277 -914
-483 -386 -264 -489 -426 -501 -782 -4 -139 5 -173 46 -178 14 -2 84 21 155
51 177 73 224 89 459 149 43 11 93 26 111 34 42 17 55 52 29 72 -22 16 -138
12 -282 -9 -99 -15 -114 -7 -86 40 10 17 21 31 24 31 4 0 15 8 26 18 74 69
452 349 587 436 205 132 404 202 424 149 8 -20 -16 -64 -193 -350 -177 -286
-331 -568 -412 -753 -201 -460 -252 -682 -201 -886 45 -179 150 -329 283 -402
87 -47 149 -21 295 126 193 194 602 757 896 1232 373 604 579 1112 490 1210
-22 24 -67 26 -103 4 -29 -17 -188 -220 -251 -320 -77 -121 -105 -225 -87
-322 8 -41 5 -48 -83 -197 -50 -84 -99 -169 -110 -187 -90 -159 -343 -549
-429 -663 -158 -209 -325 -392 -442 -485 l-38 -30 -35 32 c-19 18 -42 49 -52
68 -47 90 -12 267 105 530 45 102 226 467 280 565 117 213 154 278 247 435 57
96 153 254 214 350 61 96 118 190 126 208 38 89 -51 280 -163 352 -58 36 -118
36 -261 -1z"/>
</g>
</svg>
